<svg id="Layer_1" data-name="Layer 1" xmlns="http://www.w3.org/2000/svg" viewBox="0 0 1526.49 370.06"><defs><style>.cls-1{fill:#c1272d;}.cls-2{fill:#ed1c24;}.cls-3{fill:none;stroke:#ed1c24;stroke-miterlimit:10;stroke-width:18px;}</style></defs><path class="cls-1" d="M118,310.11a19.14,19.14,0,0,0-2.21-6.91,16.79,16.79,0,0,0-5.23-5.59,33.38,33.38,0,0,0-8.9-4.19,78.77,78.77,0,0,0-13.2-2.8,121.21,121.21,0,0,1-18.38-4.07,64.85,64.85,0,0,1-15.93-7.24,42.53,42.53,0,0,1-11.79-11.1,34,34,0,0,1-5.89-15.8,34.75,34.75,0,0,1,1.73-16.65A37.29,37.29,0,0,1,47.06,222a49.26,49.26,0,0,1,14.79-9.9,68.38,68.38,0,0,1,19.42-5.26,61.41,61.41,0,0,1,20.6.64,47.65,47.65,0,0,1,16.88,7,40.91,40.91,0,0,1,17.9,29.38l-26.55,3.37a27.84,27.84,0,0,0-2.8-8.51,18.57,18.57,0,0,0-5.32-6.26,20.68,20.68,0,0,0-7.93-3.53,30.54,30.54,0,0,0-10.52-.29,32.64,32.64,0,0,0-9.47,2.53,21.3,21.3,0,0,0-6.66,4.58,15.74,15.74,0,0,0-3.69,6.18,16.62,16.62,0,0,0-.62,7.22,13.4,13.4,0,0,0,2.9,6.91,19.62,19.62,0,0,0,6.49,5,48.25,48.25,0,0,0,9.75,3.54,119.12,119.12,0,0,0,12.66,2.43,105.46,105.46,0,0,1,18.7,4.62,58,58,0,0,1,15.22,7.86,41.11,41.11,0,0,1,10.72,11.54,38.24,38.24,0,0,1,5.25,15.43A35,35,0,0,1,134.37,337a47,47,0,0,1-14.74,9.54,73.58,73.58,0,0,1-19.53,5.09,74.84,74.84,0,0,1-13.48.47A61.8,61.8,0,0,1,73.46,350a56.34,56.34,0,0,1-12.09-4.87,43.15,43.15,0,0,1-10.17-7.67,40.47,40.47,0,0,1-7.46-10.67,44.19,44.19,0,0,1-4-13.87l26.74-3.38a29.15,29.15,0,0,0,3.62,10.66,19.67,19.67,0,0,0,6.61,6.74A23.54,23.54,0,0,0,86,330.1,43.27,43.27,0,0,0,97.36,330a33.82,33.82,0,0,0,9.48-2.48,22,22,0,0,0,6.68-4.39,15.29,15.29,0,0,0,3.78-5.94A15.68,15.68,0,0,0,118,310.11Z" transform="translate(-36.12 -37.71)"/><path class="cls-1" d="M247.43,268.31l-57.93,7.34,5,39.82,67.72-8.58,2.79,22-95,12L152.14,199.86l94.75-12L249.7,210l-67.43,8.54,4.5,35.56,57.94-7.34Z" transform="translate(-36.12 -37.71)"/><path class="cls-1" d="M328.71,267.27l-20.64,2.61,6.68,52.7L287.52,326,269.66,185l47.27-6a76.46,76.46,0,0,1,21.57.08,47.24,47.24,0,0,1,17.25,6,35.71,35.71,0,0,1,12.05,12,44.34,44.34,0,0,1,6,17.95,48.73,48.73,0,0,1-.07,13.84A37,37,0,0,1,363,249.74a54.12,54.12,0,0,1-9.73,7.53l37.7,54.38.16,1.26-29.16,3.7Zm-23.44-19.48,20.16-2.55q11.52-1.47,17-8.12t4.22-16.82q-1.33-10.56-8.19-15.65t-18.76-3.58l-20.05,2.54Z" transform="translate(-36.12 -37.71)"/><path class="cls-1" d="M448.29,265.6l13.77-105,30-3.81L467.24,303.26l-27.71,3.51L379,171.12l30-3.81Z" transform="translate(-36.12 -37.71)"/><path class="cls-1" d="M513.8,154l81.57-10.33,2.79,22-27.52,3.49L583,266.36l27.52-3.49,2.77,21.9L531.67,295.1l-2.78-21.89,26.84-3.4-12.31-97.17L516.58,176Z" transform="translate(-36.12 -37.71)"/><path class="cls-1" d="M737.08,224.19A54.16,54.16,0,0,1,734.91,244a45.12,45.12,0,0,1-8.67,15.86,46.06,46.06,0,0,1-14.53,11.24,59.81,59.81,0,0,1-19.74,5.8,51.41,51.41,0,0,1-22.76-1.79,45.79,45.79,0,0,1-17.91-10.82,59.17,59.17,0,0,1-12.6-18.63A89.48,89.48,0,0,1,632,220.48l-2.4-19a85.06,85.06,0,0,1,.43-26.14,60.25,60.25,0,0,1,7.93-21.28,47.53,47.53,0,0,1,14.78-15,50,50,0,0,1,21.07-7.34,60.84,60.84,0,0,1,21.1.67,42.53,42.53,0,0,1,28.61,21.09,66.83,66.83,0,0,1,7.17,19.27l-27.13,3.43a46.22,46.22,0,0,0-3.29-10.8,21,21,0,0,0-5.36-7.34,18,18,0,0,0-7.77-3.84,29.93,29.93,0,0,0-10.52-.29A21.47,21.47,0,0,0,666,158a21.76,21.76,0,0,0-6.7,8.93,40.88,40.88,0,0,0-2.88,13.4,93.89,93.89,0,0,0,.74,17.48L659.58,217q2.64,20.84,9.77,30.07t19.81,7.63q10.67-1.35,16.14-7.81t4.56-19.23Z" transform="translate(-36.12 -37.71)"/><path class="cls-1" d="M842.77,192.89l-57.93,7.34,5,39.82,67.72-8.58,2.79,22-95,12L747.48,124.44l94.75-12L845,134.62l-67.43,8.55,4.5,35.55,57.94-7.34Z" transform="translate(-36.12 -37.71)"/><path class="cls-1" d="M974.33,222a50.36,50.36,0,0,1-8.12,9.69,52.42,52.42,0,0,1-10,7.22,56.58,56.58,0,0,1-11.45,4.79,77.45,77.45,0,0,1-12.46,2.62,46.78,46.78,0,0,1-15.79-.71A44.74,44.74,0,0,1,903,240.14a49.7,49.7,0,0,1-11.13-9.32,66.13,66.13,0,0,1-8.57-12.15,81.26,81.26,0,0,1-6.07-14,88.13,88.13,0,0,1-3.47-15l-2.5-19.76a92.31,92.31,0,0,1-.47-15A77.48,77.48,0,0,1,872.94,140a65.89,65.89,0,0,1,5-13.73,47.66,47.66,0,0,1,8.08-11.6,42.33,42.33,0,0,1,26.3-13.08,48.77,48.77,0,0,1,17.77.85,44,44,0,0,1,15.08,6.75,43.41,43.41,0,0,1,11.4,11.89,50.6,50.6,0,0,1,6.85,16.36L952,138.89a54.54,54.54,0,0,0-5.71-12.07,35,35,0,0,0-8.29-9.09,31.54,31.54,0,0,0-10.86-5.27,34.65,34.65,0,0,0-13.43-.71,31.51,31.51,0,0,0-11.91,3.82,32.39,32.39,0,0,0-8.77,7.32,38.48,38.48,0,0,0-5.95,9.8,57.91,57.91,0,0,0-3.47,11.47,70.65,70.65,0,0,0-1.26,12.17,94.08,94.08,0,0,0,.52,11.89l2.53,20a83.74,83.74,0,0,0,2.65,12,72.7,72.7,0,0,0,4.58,11.67,61.19,61.19,0,0,0,6.54,10.45,39.85,39.85,0,0,0,8.57,8.21,33.35,33.35,0,0,0,10.62,5,34.18,34.18,0,0,0,12.8.79,65.8,65.8,0,0,0,9-1.58,47.88,47.88,0,0,0,8.81-3.08,35.93,35.93,0,0,0,7.75-4.87,25.75,25.75,0,0,0,5.87-6.95L958,183.31l-33.42,4.24-1.28-10.08,44.47-5.63Z" transform="translate(-36.12 -37.71)"/><path class="cls-1" d="M1047.84,169.77,1013,174.18l7.48,59L1009,234.63,991.13,93.57l39.82-5a58,58,0,0,1,17.92.78,43.69,43.69,0,0,1,15.41,6.27,37.85,37.85,0,0,1,11.33,11.71,41.83,41.83,0,0,1,5.76,17.08,38.39,38.39,0,0,1-.46,13.15,37.32,37.32,0,0,1-4.43,11.24,41.46,41.46,0,0,1-7.72,9.4,57.82,57.82,0,0,1-10.41,7.52l39.82,56.38.16,1.26-12.11,1.53Zm-36.12-5.37,30.71-3.89a35.6,35.6,0,0,0,12-4.08,31.68,31.68,0,0,0,9.13-7.6,28.72,28.72,0,0,0,5.36-10.48,31.56,31.56,0,0,0,.82-12.6,32.19,32.19,0,0,0-4.3-12.94,28.9,28.9,0,0,0-8.37-8.93,31.44,31.44,0,0,0-11.43-4.81,44.49,44.49,0,0,0-13.52-.65L1003.82,102Z" transform="translate(-36.12 -37.71)"/><path class="cls-1" d="M1191,171.61l-53.67,6.8-7.51,40.92-11.73,1.48,28.06-146.87,10.46-1.33L1220,207.9l-11.62,1.48Zm-51.69-4,47.09-6-32.85-71.24Z" transform="translate(-36.12 -37.71)"/><path class="cls-1" d="M1252.56,144.72l7.37,58.13-11.63,1.47L1230.43,63.26l44.37-5.62a54.67,54.67,0,0,1,17.79.9A43,43,0,0,1,1307.78,65,39,39,0,0,1,1319,76.85a41.76,41.76,0,0,1,5.68,16.9,41.2,41.2,0,0,1-1.3,17.73,38,38,0,0,1-7.91,14.1,42.71,42.71,0,0,1-13.17,9.89,54.84,54.84,0,0,1-17,5.1Zm-1.23-9.79,32.74-4.15a38.71,38.71,0,0,0,12.69-4,32.86,32.86,0,0,0,9.68-7.52,28.7,28.7,0,0,0,5.79-10.58,31.66,31.66,0,0,0,.93-13.31A33.58,33.58,0,0,0,1309,82.55a29.11,29.11,0,0,0-8.25-9.15,32.08,32.08,0,0,0-11.27-5.07,40,40,0,0,0-13.39-.81l-32.75,4.15Z" transform="translate(-36.12 -37.71)"/><path class="cls-1" d="M1450,178.77l-11,1.38-8.56-67.62-66.27,8.4,8.57,67.62-11,1.39L1344,48.88l11-1.39,8,63.36,66.27-8.4-8-63.36,11-1.38Z" transform="translate(-36.12 -37.71)"/><line class="cls-2" x1="14.53" y1="361.13" x2="1526.49" y2="169.6"/><line class="cls-3" x1="14.53" y1="361.13" x2="1473.19" y2="176.35"/><polygon class="cls-2" points="1452.3 212.59 1462.15 177.75 1443.92 146.46 1526.49 169.6 1452.3 212.59"/></svg>